<svg width="163" height="163" viewBox="0 0 163 163" fill="none" xmlns="http://www.w3.org/2000/svg">
<path d="M138.232 0.318604H24.8331C11.4126 0.318604 0.533203 11.198 0.533203 24.6185V138.018C0.533203 151.438 11.4126 162.318 24.8331 162.318H138.232C151.653 162.318 162.532 151.438 162.532 138.018V24.6185C162.532 11.198 151.653 0.318604 138.232 0.318604Z" fill="#FFE3B9"/>
<path d="M72.3572 32.2754H90.0759V113.591C80.9001 115.173 74.2556 116.123 66.9783 116.123C45.1464 116.123 34.0723 106.314 34.0723 87.6462C34.0723 69.6111 45.7792 58.2206 64.4471 58.2206C67.2947 58.2206 69.5096 58.2206 72.3572 58.8534V32.2754ZM72.3572 73.0916C70.1424 72.4588 68.5603 72.1423 66.3455 72.1423C57.1698 72.1423 52.1073 77.8376 52.1073 87.3298C52.1073 96.8219 56.8534 101.884 66.0291 101.884C67.9275 101.884 69.5096 101.884 72.3572 101.252V73.0916ZM118.236 59.1698V99.9859C118.236 114.224 117.287 120.869 114.123 126.564C111.275 132.259 107.478 135.74 99.568 139.853L83.115 131.943C91.0251 128.462 94.8219 124.982 97.0367 120.236C99.568 115.173 100.517 109.478 100.517 93.9743V59.1698H118.236ZM100.517 32.2754H118.236V50.3104H100.517V32.2754Z" fill="#00244A"/>
</svg>
