<svg width="81" height="49" viewBox="0 0 81 49" fill="none" xmlns="http://www.w3.org/2000/svg">
<path d="M40.3523 0.720215C29.6235 0.720215 22.9179 6.08464 20.2357 16.8135C24.259 11.4491 28.9529 9.4374 34.3173 10.7785C37.378 11.5437 39.5657 13.7641 41.9871 16.222C45.9317 20.226 50.4972 24.8601 60.4689 24.8601C71.1977 24.8601 77.9032 19.4957 80.5854 8.76685C76.5621 14.1313 71.8683 16.1429 66.5038 14.8018C63.4431 14.0366 61.2555 11.8162 58.8341 9.35827C54.8894 5.35433 50.324 0.720215 40.3523 0.720215ZM20.2357 24.8601C9.50688 24.8601 2.80135 30.2245 0.119141 40.9534C4.14246 35.5889 8.83632 33.5773 14.2007 34.9184C17.2614 35.6836 19.4491 37.904 21.8705 40.3619C25.8152 44.3659 30.3806 49 40.3523 49C51.0811 49 57.7867 43.6356 60.4689 32.9067C56.4456 38.2712 51.7517 40.2828 46.3873 38.9417C43.3266 38.1765 41.1389 35.9561 38.7175 33.4982C34.7728 29.4942 30.2074 24.8601 20.2357 24.8601Z" fill="#FFE3B9"/>
</svg>
